<svg width="338" height="30" fill="none" xmlns="http://www.w3.org/2000/svg"><path d="M317.389 15.36c-.463.026-.93.044-1.383.082-.294.023-.42-.043-.617-.078-.065-.012-.136-.036-.196-.032-.458.025-.916.054-1.373.082-.14.06-.228.139-.443.168-.21.028-.458.028-.691.043-.309.017-.617.035-.925.05-.154.009-.28.038-.331.093-.009.009.093.031.15.045.187.044.369.095.575.13.197.033.439-.023.65.02.472.093.477.092.837.073.308-.018.616-.037.924-.05.061-.003.131.02.197.032.196.032.323.108.612.078.22-.023.463-.028.692-.041.191.043.369.093.575.127.192.033.248.059.146.103a1.081 1.081 0 0 1-.397.061c-.154.002-.308.016-.463.024l-.228.013c-.295.018-.295.018-.833-.078-.21-.037-.448.017-.649-.02-.136-.023-.253-.06-.384-.085a1.076 1.076 0 0 0-.215-.008c-.233.011-.467.02-.691.04-.159.014-.252.056-.233.099.005.016.117.04.183.042.149.002.308-.02.453-.01.14.011.285.041.388.074.211.07.448.006.65.024.21.02.383.08.584.115.052.009.15-.006.229-.011l.687-.032c.192.043.397.082.571.131.313.09.65.124 1.056.08a1.58 1.58 0 0 1 .636.042c.187.06.402.053.64.04.22-.012.444-.046.668-.005.487.093.491.098 1.066.06.173-.011.303-.015.434.02.122.031.253.058.38.088.228-.011.462-.022.691-.035.294-.018.458.003.528.088.043.051.062.098.165.133.121.042.252.04.43.027.168-.01.289-.028.359-.083a.535.535 0 0 1 .135-.062c.042-.014.107-.035.145-.032.07.006.163.022.187.042.23.182.23.184.464.236.257.059.524.111.758.177.211.059.421.032.65.032.172 0 .285.038.271.078-.009.022-.074.056-.13.06-.458.03-.92.058-1.383.08-.056.003-.126-.024-.191-.037-.131-.027-.249-.07-.389-.078-.14-.009-.303.015-.458.023-.154.007-.317.028-.457.016-.141-.012-.253-.055-.384-.084-.061-.013-.145-.033-.196-.028a2.112 2.112 0 0 1-.837-.078.798.798 0 0 0-.206-.02c-.542.028-1.079.06-1.621.09-.219.013-.397-.04-.444-.13-.024-.05-.071-.099-.071-.149-.001-.09-.258-.14-.445-.13-.308.017-.621.03-.925.053a1.66 1.66 0 0 1-.626-.052c-.197-.062-.421-.05-.645-.032-.168.013-.215.063-.205.188.011.102-.069.134-.372.151-.383.023-.771.045-1.159.063-.06.003-.13-.023-.191-.036-.131-.027-.248-.07-.389-.08-.14-.01-.303.014-.457.023-.154.008-.318.03-.458.02-.14-.01-.257-.056-.384-.084-.061-.014-.135-.033-.196-.03-.308.013-.617.032-.925.05-.346.018-.346.018-.837-.074-.224-.042-.448-.008-.668.005-.233.012-.453.02-.636-.041a1.108 1.108 0 0 0-.402-.055c-.387.02-.77.043-1.158.062a.805.805 0 0 1-.206-.017 2.254 2.254 0 0 0-.836-.08c-.299.028-.622.03-.92.057-.164.014-.238.063-.205.1.018.02.117.043.182.043.15 0 .313-.023.453-.014.29.018.436.144.814.109.224-.022.458-.03.691-.037.061-.002.126.027.192.042.187.04.351.093.622.065.224-.022.462-.029.691-.041.364-.021.364-.02.837.072.224.043.448.007.668-.004.163-.008.317-.023.448-.003.201.032.347.104.594.099.234-.005.463-.027.696-.035.145-.005.281.019.398.06.122.04.252.058.411.048.229-.013.463-.029.696-.037a.971.971 0 0 1 .201.024c.131.027.258.058.384.087.229-.01.462-.014.687-.032.172-.015.294-.009.434.021.178.04.323.113.613.077.145-.017.313-.013.457-.028a.89.89 0 0 1 .426.032c.239.086.538.086.846.052.336-.037.589.005.841.07.267.07.267.068.474.236.061.048.234.07.379.06.242-.015.453-.008.631.049.187.062.411.053.64.036.303-.023.607-.044.855.043.122.042.253.053.416.042.463-.029.93-.047 1.383-.081.275-.022.434.026.621.066.253.055.529.105.53.224 0 .02.066.043.122.058.122.031.253.058.379.088.187.045.369.082.626.057.224-.02.463-.027.691-.04.229-.015.44-.023.646.034.238.064.491.126.762.173.192.035.444-.025.65.021.126.029.248.062.383.086.057.01.145.002.22-.001.154-.006.313-.011.462-.027.173-.017.304-.014.435.02.122.032.244.075.384.084.21.013.443-.048.654.02.108.035.243.068.384.079.14.01.303-.013.453-.012.065 0 .145.024.182.043.024.01-.009.04-.041.055a.493.493 0 0 1-.164.046c-.462.028-.924.052-1.387.08-.275.015-.275.015-.832-.079a1.893 1.893 0 0 0-.439-.006c-.22.014-.444.04-.673.014-.299-.102-.669-.11-1.061-.07a1.356 1.356 0 0 1-.435-.011c-.257-.057-.528-.11-.758-.177-.177-.052-.262-.057-.336.016-.023.023-.046.047-.041.069.028.075.08.15.109.225.009.021-.028.046-.051.068-.075.064-.173.06-.337.007a1.496 1.496 0 0 0-.621-.062c-.225.022-.468.02-.692.043a2.203 2.203 0 0 1-.837-.078.793.793 0 0 0-.205-.018c-.696.037-1.387.078-2.083.115a1.05 1.05 0 0 1-.402-.055 1.095 1.095 0 0 0-.407-.053c-.617.033-1.233.064-1.85.105a1.723 1.723 0 0 1-.626-.055 1.242 1.242 0 0 0-.416-.045c-.178.005-.304.02-.392.064-.084.043-.023.068.164.101.201.036.388.083.58.124.154-.006.308-.018.458-.017.065 0 .126.026.192.041.187.044.36.087.626.062.224-.021.463-.027.691-.04.318-.018.318-.018.833.076.13.024.271.022.439.008a.882.882 0 0 1 .397.055c.042.018.029.048-.059.148 0 .074.098.04.13-.008.051-.07-.047-.092-.234-.054-.13.028-.195.067-.163.1.019.016.108.037.267-.038.41-.092.723-.103 1.022-.128.177-.014.289-.009.43.03.168.047.337.096.612.071.299-.028.617-.032.92-.055.281-.022.426.044.604.083.215.047.453-.007.649.02.206.026.351.093.59.104.345-.042.565.033.827.083.206.037.449.003.668-.014a1.68 1.68 0 0 1 .627.051c.196.062.416.047.64.033.523-.032.542-.036.846.046.22.06.43.032.649.024.192.04.379.084.581.12.051.009.149-.007.228-.011l.692-.039c.154-.008.317-.03.457-.022.141.01.258.054.384.082.126.029.257.057.379.087.187.045.365.082.626.059.225-.02.458-.027.692-.041.294-.018.285-.013.832.076.294.05.598-.012.897-.019.149-.003.294.013.397.057.042.018.029.048.043.074-.771.043-1.546.08-2.307.132-.295.02-.449-.034-.608-.079-.262-.072-.607.035-.856-.058a1.39 1.39 0 0 0-.621-.06c-.15.017-.309.015-.463.03-.392.034-.752.036-1.065-.067-.108-.036-.262-.056-.375-.09a1.197 1.197 0 0 0-.411-.05c-.696.038-1.387.076-2.079.117-.06.003-.121.026-.172.043-.131.043-.088.076.122.103.07.009.126.028.192.043.126.029.243.074.383.084.141.01.304-.011.458-.02.154-.008.318-.03.458-.022.14.01.257.054.388.08.061.014.136.037.197.035.308-.01.612-.027.92-.042.192.04.356.1.585.112.145.009.299-.008.448-.005.066 0 .15.023.183.043.018.012-.042.042-.089.058-.177.058-.42.048-.639.067-.238.02-.453.015-.636-.044a1.127 1.127 0 0 0-.407-.052c-.388.02-.771.044-1.158.062a1.014 1.014 0 0 1-.206-.02c-.491-.092-.491-.095-.837-.074-.509.03-.509.03-.85-.05-.066-.014-.136-.043-.192-.041-.542.026-1.079.051-1.616.088-.178.01-.299.011-.43-.028a1.742 1.742 0 0 0-.384-.08c-.145-.008-.303.015-.458.023-.154.008-.317.028-.453.017-.14-.012-.262-.054-.383-.084a1.378 1.378 0 0 0-.435-.017c-.532.036-.537.032-1.066-.061-.06-.01-.14-.022-.205-.02-.388.02-.771.044-1.158.063a.94.94 0 0 1-.398-.055c-.042-.018-.028-.048-.057-.107-.033-.014.005.01.014.033.07-.003.155 0 .206-.013.131-.029.196-.067.163-.099a.38.38 0 0 0-.164-.037c-.103 0-.191.034-.219.116-.294.05-.607.062-.91.087-.178.016-.29.008-.43-.03a1.52 1.52 0 0 0-.618-.07c-.298.028-.616.033-.924.055-.355.026-.51-.11-.809-.107-.309.004-.617.031-.925.05-.271.016-.271.016-.832-.081-.206-.036-.448.018-.65-.02-.135-.023-.252-.06-.383-.085a1.098 1.098 0 0 0-.215-.007c-.388.02-.78.033-1.154.067a2.687 2.687 0 0 1-1.052-.09c-.383.018-.77.028-1.149.058-.275.022-.434-.028-.621-.068-.066-.014-.122-.036-.192-.042-.07-.006-.155.007-.229.011-.308.018-.626.026-.925.054-.369.036-.51-.088-.795-.102-.191.075-.293.177-.671.185-.309.007-.617.032-.925.05-.154.007-.308.017-.462.025-.248.014-.364.074-.312.165.028.05.052.1.075.15.048.088-.069.165-.265.176-.542.03-1.079.062-1.62.089a1.069 1.069 0 0 1-.403-.058 1.088 1.088 0 0 0-.406-.05c-.542.03-1.079.061-1.621.089a.907.907 0 0 1-.201-.024c-.131-.027-.257-.058-.384-.087-.308.015-.612.025-.915.044-.491.028-.491.03-.851-.053-.065-.015-.131-.043-.192-.041-.233.006-.462.022-.696.036-.686.041-.686.041-.887-.003-.183-.042-.347-.093-.622-.069-.299.029-.617.039-.925.055-.229.01-.458.023-.687.027-.06.002-.126-.027-.191-.042a1.679 1.679 0 0 0-.627-.057c-.149.015-.308.019-.462.027-.402.022-.402.022-1.061-.067a1.102 1.102 0 0 0-.211-.014c-.541.028-1.078.06-1.62.087a1.389 1.389 0 0 1-.21-.013c-.739-.086-.739-.086-1.524-.041-.299.016-.308.022-.622-.058a1.26 1.26 0 0 0-.42-.04c-.617.039-1.238.065-1.85.109-.275.019-.435-.026-.622-.067-.065-.013-.135-.043-.191-.042-.617.03-1.234.067-1.85.098-.056.003-.126-.027-.192-.04-.126-.028-.248-.068-.388-.077-.145-.009-.304.015-.463.023-.387.02-.387.019-.836-.07-.061-.011-.141-.028-.201-.025-.617.032-1.238.06-1.85.105a2.419 2.419 0 0 1-.837-.08.796.796 0 0 0-.205-.017c-.696.037-1.387.078-2.083.115a1.105 1.105 0 0 1-.403-.057c-.187-.061-.406-.053-.64-.039-.537.034-.542.032-.86-.04-.065-.015-.121-.034-.192-.042-.065-.007-.149-.002-.219 0l-.925.052c-.308.017-.621.027-.925.054-.373.033-.551-.065-.813-.11-.383.02-.776.034-1.154.067-.289.025-.425-.041-.617-.076-.066-.012-.136-.037-.197-.034-.696.035-1.391.073-2.083.116-.168.01-.28-.002-.42-.038-.314-.081-.328-.078-.851-.046-.229.014-.448.027-.645-.035a1.672 1.672 0 0 0-.631-.05c-.304.024-.616.037-.925.053-.308.017-.616.04-.924.05-.248.008-.398-.063-.594-.1a1.1 1.1 0 0 0-.215-.008c-.309.015-.626.026-.925.053-.364.033-.566-.05-.823-.098-.056-.01-.15-.004-.22 0l-1.62.091c-.192-.04-.389-.079-.581-.12l-.924.05c-.234.013-.472.018-.691.041-.285.032-.426-.04-.618-.074-.065-.011-.135-.037-.196-.034-.388.018-.775.037-1.158.064-.365.027-.51-.11-.809-.107-.309.002-.626.023-.925.051a2.228 2.228 0 0 1-.837-.08.797.797 0 0 0-.206-.017c-.387.019-.77.043-1.158.062a1.224 1.224 0 0 1-.21-.013c-.739-.087-.739-.089-1.061-.07-.229.013-.463.029-.696.037a.924.924 0 0 1-.206-.022c-.486-.091-.486-.093-.837-.074l-.924.053-.581-.12c-.383.02-.775.037-1.153.065a1.177 1.177 0 0 1-.43-.029c-.169-.045-.337-.097-.617-.07-.299.027-.617.031-.92.055-.365.028-.515-.11-.809-.107-.309.002-.626.023-.925.05a2.227 2.227 0 0 1-.837-.079.797.797 0 0 0-.206-.017c-.85.046-1.695.092-2.545.141-.523.03-.523.032-1.519-.049a1.699 1.699 0 0 0-.215-.008c-.308.014-.626.026-.924.052-.365.033-.566-.048-.823-.097-.057-.01-.145-.005-.22-.001-.234.01-.462.025-.696.038l-.925.052-.58-.118c-.383.021-.775.033-1.153.066-.29.025-.426-.039-.618-.075-.065-.011-.135-.037-.196-.035-.696.035-1.392.072-2.083.116-.285.019-.416-.049-.608-.083-.065-.01-.14-.03-.201-.027-.462.022-.925.05-1.387.076-.262.016-.262.016-.832-.076-.066-.01-.14-.02-.206-.018-1.466.08-2.928.164-4.395.244a1.053 1.053 0 0 1-.402-.055 1.092 1.092 0 0 0-.407-.053c-.616.033-1.237.063-1.849.105a1.73 1.73 0 0 1-.627-.055 1.135 1.135 0 0 0-.416-.044c-.308.019-.616.035-.924.052l-.925.053c-.308.017-.621.027-.925.054-.373.033-.556-.06-.813-.107l-1.383.073c-.617.034-1.233.07-1.849.102-.057.004-.127-.024-.192-.037-.192-.037-.333-.09-.617-.072-1.383.084-2.775.155-4.162.238-.289.018-.416-.047-.612-.082-.066-.01-.141-.031-.201-.028-.771.04-1.542.085-2.312.128-.313.017-.313.017-.837-.075a1.014 1.014 0 0 0-.206-.021c-1.004.054-2.003.111-3.008.167a1.086 1.086 0 0 1-.406-.053 1.072 1.072 0 0 0-.403-.055c-.924.05-1.854.1-2.774.156a1.78 1.78 0 0 1-.631-.052 1.106 1.106 0 0 0-.411-.046c-1.387.078-2.774.154-4.162.236a1.73 1.73 0 0 1-.621-.062 1.24 1.24 0 0 0-.421-.04c-.178.008-.285.025-.383.071-.125.06-.204.134-.503.14-.309.005-.622.024-.925.05-.29.027-.426-.041-.608-.081a1.438 1.438 0 0 0-.435-.019.848.848 0 0 0-.349.087c-.205.104-.224.104-.477.04a1.326 1.326 0 0 0-.407-.055c-.616.031-1.233.066-1.849.103-.355.02-.36.024-.626-.051a1.169 1.169 0 0 0-.412-.046c-1.695.095-3.391.188-5.086.288a1.947 1.947 0 0 1-.626-.06c-.061-.016-.122-.037-.192-.043-.07-.005-.15 0-.224.004-1.233.069-2.471.134-3.699.21-.281.018-.43-.03-.622-.07-.066-.013-.122-.034-.192-.04-.07-.004-.154.007-.229.012-1.233.068-2.471.133-3.699.21-.294.017-.421-.046-.612-.08-.066-.011-.136-.034-.197-.03-.387.017-.77.041-1.158.062-.925.052-1.85.102-2.774.156-.355.02-.51-.114-.809-.107-.388.009-.771.04-1.159.062-.308.018-.616.034-.924.053-.304.017-.304.017-1.061-.069-.066-.007-.145-.018-.211-.014-1.078.059-2.162.118-3.236.181-.248.014-.453.007-.631-.048a1.126 1.126 0 0 0-.412-.05c-1.62.092-3.236.182-4.857.272a.907.907 0 0 1-.201-.024c-.131-.027-.257-.058-.384-.087-.093.035-.214.067-.275.107-.083.053-.195.069-.373.078-.177.01-.289.007-.43-.032a1.69 1.69 0 0 0-.617-.07c-1.695.1-3.391.192-5.086.29-.28.016-.411-.05-.608-.085-.065-.01-.14-.027-.201-.023-.696.036-1.387.076-2.083.114-1.929.108-3.858.212-5.782.326-.35.021-.589-.016-.837-.08a.793.793 0 0 0-.205-.018c-2.7.15-5.399.3-8.094.452a1.097 1.097 0 0 1-.402-.055 1.095 1.095 0 0 0-.407-.052l-3.699.207c-.308.018-.313.02-.631-.053-.066-.015-.136-.043-.187-.04a.59.59 0 0 0-.285.098c-.074.054-.191.07-.364.08a1.248 1.248 0 0 1-.43-.028c-.173-.045-.332-.089-.612-.073-3.545.204-7.09.4-10.634.602-.285.015-.417-.048-.613-.082-.066-.01-.131-.025-.201-.028-.075-.003-.154.006-.229.01l-17.346.972c-.345.02-.34.02-.718.16-.047.016-.107.04-.173.042-1.77.102-3.544.2-5.32.3-.77.042-1.54.087-2.311.128-.276.015-.276.015-.933.18-.056.014-.122.032-.187.036-3.082.173-6.165.347-9.252.517-.243.013-.439.04-.55.114a.668.668 0 0 1-.336.091c-2.158.121-4.316.244-6.478.362-.257.014-.41.057-.536.121-.042.021-.08.046-.14.061-.056.014-.14.018-.21.023-1.85.104-3.7.21-5.553.31-.276.014-.388.07-.523.13-.046.02-.079.047-.14.06-.06.013-.149.013-.224.016l-4.623.26c-.3-.007-.364.08-.509.134-.051.019-.088.043-.149.055-.065.012-.15.011-.229.014-1.233.069-2.466.142-3.703.206-.285.014-.34.092-.495.145-.05.017-.102.043-.163.048-.77.046-1.541.089-2.312.13-.256.014-.256.013-.709.164a.74.74 0 0 1-.177.04c-1.154.067-2.312.13-3.47.196a.612.612 0 0 0-.326.096.633.633 0 0 1-.332.093c-.924.053-1.849.107-2.774.155-.257.013-.425.05-.536.12-.084.051-.187.077-.35.087-.925.05-1.85.106-2.779.151-.27.013-.41.065-.522.129-.089.051-.191.07-.364.08-1.696.092-3.396.184-5.086.286-.285.017-.43-.035-.617-.073-.267-.052-.515-.109-.516-.227 0-.018-.08-.04-.136-.054-.416-.113-.416-.113-.482-.234-.038-.074-.081-.15-.114-.225-.062-.124-.212-.155-.641-.132-.154.008-.308.02-.462.026-.23.011-.403-.038-.445-.13-.024-.05-.052-.099-.076-.149.234-.013.229-.014.639-.199.172-.077.172-.077-.16-.154-.126-.028-.248-.06-.384-.087a.923.923 0 0 0-.205-.016c-.388.02-.771.042-1.154.064-.616.035-.617.035-1.244-.118-.051-.012-.13-.034-.122-.046.052-.057.177-.081.336-.088.234-.01.463-.025.692-.038l.462-.025c.144-.058.294-.115.429-.174.214-.092.214-.095-.08-.158-.188-.041-.39-.079-.581-.118-.229.013-.462.027-.691.038-.29.015-.407-.014-.482-.112-.066-.086.013-.16.237-.18.229-.018.444-.03.56-.108.112-.075.308-.104.55-.11.155-.006.309-.017.463-.026.2-.013.308-.09.265-.177-.024-.056-.07-.103-.253-.114-.809-.051-.818-.05-1.22-.151-.038-.01-.066-.037-.052-.05a.23.23 0 0 1 .13-.061 82.035 82.035 0 0 1 1.611-.09c.178-.009.309-.02.369-.076.084-.078.046-.149-.118-.201a.682.682 0 0 0-.192-.036c-.616.029-1.228.065-1.845.094a.397.397 0 0 1-.182-.042c-.047-.036.022-.085.186-.102.215-.023.434-.025.578-.101.2-.108.448-.207.671-.311.037-.018.098-.053.084-.056-.117-.033-.253-.059-.374-.09-.206-.053-.207-.127-.16-.198.036-.058.176-.081.35-.081.074 0 .167-.001.228-.015.159-.034.21-.076.13-.108a.54.54 0 0 0-.187-.04c-1 .053-2.004.104-2.998.169-.295.019-.43-.039-.608-.08a1.11 1.11 0 0 0-.43-.02c-.159.023-.313.01-.412-.039-.08-.04.06-.076.439-.116.07-.008.15-.013.2-.028.541-.165.541-.167.915-.189.364-.02.364-.022.555-.11.089-.042.186-.083.27-.125.033-.017.089-.048.07-.057-.103-.046-.243-.056-.407-.046-.364.027-.794.007-.984.152-.075.054-.192.07-.36.08-1.69.092-3.381.19-5.076.28-.276.014-.402.07-.509.133-.093.052-.196.067-.373.077-.177.01-.318.014-.42-.035-.062-.03-.01-.073.13-.116.2-.061.162-.137.096-.208-.047-.047-.192-.08-.346-.076-.23.007-.449.024-.64-.036-.113-.035-.253-.059-.38-.089-.243-.061-.486-.124-.827-.082-.234-.015-.398-.069-.585-.11-.313-.07-.341-.08-.118-.155.252-.084.055-.192.195-.275.149-.088.354-.166.535-.248l.135-.063c-.107-.03-.206-.067-.332-.088-.164-.027-.248-.06-.24-.154-.032-.013-.018.021.02.03a.675.675 0 0 0 .196-.01c.13-.028.196-.066.163-.098a.38.38 0 0 0-.164-.038c-.103 0-.191.034-.219.116-.523.064-1.065.095-1.606.121-.056.003-.127-.027-.192-.042-.215-.05-.215-.05-.846-.063a.463.463 0 0 1-.187-.043c-.136-.092-.132-.194-.199-.292.122-.064.243-.126.368-.189.252-.126.578-.238.773-.376-.042-.074-.099-.148.106-.21.584-.077.58-.077.738-.15.451-.207.899-.416 1.37-.62.125-.053.125-.082-.1-.104a1.774 1.774 0 0 0-.22-.004c-.233.01-.466.039-.695.033-.23-.003-.398-.07-.585-.11a74.358 74.358 0 0 1-.576-.129c-.22.005-.438.048-.659-.02-.168-.052-.379-.09-.57-.133.144-.115.414-.204.624-.306.19-.093.195-.091.709-.164.242-.034.325-.205.12-.255-.249-.06-.51-.115-.763-.172-.22.005-.444.047-.654-.02a1.578 1.578 0 0 0-.622-.066c-.458.035-.925.053-1.387.081-.16.01-.332.004-.403-.047-.046-.036.089-.087.243-.098.233-.015.443-.034.56-.11.111-.076.317-.1.56-.11a.471.471 0 0 0 .172-.04c.168-.089.354-.165.714-.163.15-.03.228-.069.181-.105a.413.413 0 0 0-.182-.042c-.388.016-.775.032-1.154.06-.177.013-.313.016-.425-.029-.08-.03-.038-.07.111-.115.13-.038.168-.082.158-.134-.024-.12-.164-.154-.613-.145-.322.007-.402-.013-.472-.116-.02-.024-.066-.057-.034-.074.2-.103.33-.23.709-.28.15-.019.308-.02.401-.059.093-.04.177-.085.275-.123.121-.046.205-.089.149-.117-.094-.052-.244-.056-.416-.037-.15.015-.309.017-.463.027-.275.017-.5-.021-.533-.088-.09-.176-.184-.35-.265-.525-.01-.021.014-.049.05-.067.131-.064.271-.125.406-.187.158-.072.41-.059.626-.073.303-.02.303-.02.709-.166.158-.058.434-.036.597-.088.051-.017.13-.044.117-.06-.02-.019-.113-.034-.183-.042a1.123 1.123 0 0 0-.215-.009c-.85.046-1.695.096-2.545.14-.145.008-.304-.025-.356-.072-.051-.043-.038-.096-.048-.146.136-.063.29-.12.406-.188.088-.052.19-.075.368-.078.234-.005.463-.024.724-.038.485-.223.96-.456 1.481-.678.21-.09.158-.181.2-.277.04-.088.354-.075.564-.101.168-.022.224-.07.158-.104a.483.483 0 0 0-.187-.042c-.154 0-.308.015-.462.023-.154.008-.332.004-.458.03-.121.024-.2.076-.28.12-.088.049-.205.066-.382.07-.229.003-.458.017-.687.029-.252-.059-.514-.116-.758-.177-.047-.012-.056-.047-.052-.07.01-.059-.061-.095-.215-.123-.131-.024-.24-.059-.36-.089.092-.04.195-.08.27-.125.162-.092.367-.16.723-.158.14-.06.25-.132.433-.173.172-.04.467-.002.597-.091a.696.696 0 0 1 .29-.113c.2-.03.462-.015.578-.1a.638.638 0 0 1 .308-.106c.154-.014.312-.017.424-.046.06-.016.126-.04.126-.061 0-.014-.094-.035-.159-.044-.06-.01-.14-.018-.21-.014-.234.01-.463.027-.696.036-.066.004-.14-.007-.21-.016-.206-.024-.193-.054-.03-.109.164-.053.28-.122.415-.184.15-.011.337-.007.44-.036.172-.048.293-.116.432-.176.155-.01.313-.013.458-.03.06-.006.089-.04.14-.06.093-.037.172-.092.298-.11.206-.028.458-.018.579-.102.07-.049.177-.1.307-.104.365-.007.518-.09.705-.17.14-.06.439-.03.593-.09.102-.038.177-.085.28-.121a.947.947 0 0 1 .2-.028c.383-.024.77-.042 1.153-.067.061-.005.117-.028.164-.046.097-.04.158-.094.28-.12.12-.026.293-.027.443-.035.48-.024.518-.018.737-.147.177-.105.612-.032.756-.148.083-.067.237-.122.513-.13.388-.012.77-.041 1.158-.062.346-.02.341-.02.714-.161.168-.064.415-.056.635-.068.233-.013.448-.032.56-.108.111-.075.317-.1.555-.11.22-.012.467-.005.64-.066.42-.147.415-.148.709-.164l1.387-.078c.308-.018.63-.021.92-.056.21-.024.303-.11.438-.169l1.149-.07c.537-.031 1.079-.06 1.62-.09.234-.059.265-.186.658-.193.233-.004.462-.024.696-.037.387-.022.77-.05 1.158-.062.294-.008.345-.09.499-.142.051-.019.098-.044.159-.05.607-.043 1.232-.054 1.825-.118.061-.006.117-.038.13-.06.01-.013-.07-.035-.12-.046a.917.917 0 0 0-.207-.02c-1.928.106-3.857.215-5.786.321-.271.016-.271.015-.929.183-.056.014-.121.03-.191.034-.308.019-.621.03-.925.054a1.707 1.707 0 0 1-.63-.053 1.28 1.28 0 0 0-.417-.047 1.121 1.121 0 0 0-.397.063c-.135.056-.204.13-.49.145-1.312.069-2.624.145-3.932.218-.182-.02-.271-.052-.225-.09a.266.266 0 0 1 .14-.056c.537-.034 1.079-.062 1.616-.094.075-.005.178-.002.22-.017.205-.07.279-.18.667-.188.224-.006.453-.029.667-.05.06-.007.117-.039.13-.062.005-.012-.07-.034-.126-.045-.206-.043-.444.01-.65-.02-.07-.01-.168-.025-.182-.043-.01-.016.07-.044.126-.06a.923.923 0 0 1 .191-.034c.617-.037 1.233-.075 1.85-.104.252-.011.43-.05.54-.12a.696.696 0 0 1 .346-.087c1.079-.059 2.158-.124 3.241-.178.271-.013.411-.064.523-.129.088-.052.19-.07.364-.08 1.546-.083 3.082-.175 4.628-.255.285-.014.368-.08.513-.136.051-.02.084-.044.149-.056.065-.013.15-.011.229-.015 1.233-.068 2.466-.141 3.704-.205.29-.014.345-.09.494-.144.051-.017.098-.044.158-.049.925-.054 1.85-.105 2.774-.157l1.85-.104c.303-.016.303-.017.714-.162a.702.702 0 0 1 .172-.042c1.775-.101 3.545-.199 5.32-.299a.632.632 0 0 0 .33-.095.628.628 0 0 1 .327-.094c1.387-.08 2.774-.158 4.166-.233.252-.013.43-.05.541-.118a.695.695 0 0 1 .346-.087c1.387-.077 2.774-.158 4.166-.231a1.25 1.25 0 0 0 .527-.127c.046-.022.083-.057.14-.06.69-.044 1.377-.09 2.073-.12.29-.013.387-.077.504-.138.093-.049.2-.066.378-.073.387-.014.77-.041 1.149-.068.056-.004.126-.038.13-.06.01-.039-.099-.066-.276-.079l-5.553.31c-.304.018-.304.018-.714.163a.69.69 0 0 1-.177.042l-5.32.299a.632.632 0 0 0-.33.095.628.628 0 0 1-.327.094c-1.696.096-3.391.193-5.091.284-.252.013-.43.048-.541.118a.694.694 0 0 1-.345.087c-1.62.09-3.237.183-4.862.27-.164.007-.285-.036-.276-.077.004-.021.074-.056.13-.06.845-.052 1.686-.106 2.536-.146.285-.013.368-.08.513-.136.047-.02.084-.046.145-.056.065-.013.149-.011.228-.015 2.004-.113 4.008-.227 6.016-.334.29-.016.345-.09.494-.144.051-.018.098-.046.159-.049.616-.038 1.233-.071 1.849-.105l3.241-.181c.313-.018.313-.018.714-.161a.638.638 0 0 1 .173-.042l8.56-.48a.632.632 0 0 0 .331-.095.656.656 0 0 1 .327-.096c3.858-.217 7.71-.433 11.568-.647.252-.014.43-.046.541-.118.08-.052.187-.08.346-.089 4.24-.237 8.481-.474 12.726-.713 2.854-.159 5.707-.321 8.561-.477.262-.015.401-.062.532-.125.042-.021.084-.056.14-.06.611-.039 1.223-.075 1.835-.112l.576.12.428-.175c.925-.047 1.835-.117 2.77-.141.06-.002.126.027.192.042.435.094.682.086.957-.042.098-.046.182-.087.331-.095.463-.029.93-.048 1.387-.081.248-.017.453-.003.631.051.127.04.258.056.412.046.85-.048 1.695-.094 2.545-.145.061-.003.117-.029.163-.047.098-.04.182-.082.275-.124.127.026.267.045.37.078.131.04.252.039.43.028 3.39-.193 6.786-.38 10.177-.575.289-.016.416.048.612.08.066.013.131.027.201.03.075.003.154-.006.229-.01l7.636-.43c.336-.018.336-.018.837.074a.84.84 0 0 0 .206.021c1.158-.062 2.316-.129 3.47-.193.149-.008.275.016.411.05.267.068.286.068.481-.032a.89.89 0 0 1 .345-.09c.168-.016.304-.012.435.015.187.037.323.1.608.083 1.233-.075 2.47-.137 3.699-.213.28-.017.43.034.617.071.065.013.126.035.196.039.071.004.155-.007.229-.011 1.541-.086 3.087-.17 4.624-.263.289-.017.416.047.612.08.066.012.141.033.202.03.924-.05 1.854-.102 2.778-.154.332-.02.332-.018.837.073a.925.925 0 0 0 .206.02c1.079-.058 2.162-.119 3.241-.18.332-.018.332-.018 1.29.058.07.006.145.015.215.011 1.233-.068 2.471-.135 3.704-.208.247-.014.453-.003.631.051.126.04.257.056.411.046 1.387-.078 2.779-.153 4.161-.235.267-.016.44.017.627.06.061.015.122.036.192.042.07.006.149 0 .224-.005 1.387-.078 2.779-.152 4.161-.236.28-.017.43.034.617.071.066.014.136.04.192.04.542-.028 1.084-.052 1.621-.092.289-.022.416.048.612.08.066.011.141.034.202.03 1.158-.062 2.316-.127 3.47-.194.163-.01.285.004.416.043.173.052.374.073.626.056.537-.036 1.079-.062 1.621-.092.317-.018.317-.018 1.29.058.07.006.145.015.215.012.924-.051 1.854-.1 2.774-.156a1.78 1.78 0 0 1 .631.051c.126.04.253.055.411.046l2.546-.143c.308-.018.616-.047.925-.048.224 0 .388.073.589.109.056.01.149-.002.224-.005 1.079-.06 2.163-.117 3.237-.185.28-.017.43.034.617.071.065.014.136.04.192.039.387-.018.77-.041 1.158-.062.462-.026.929-.045 1.387-.08.374-.028.515.103.814.107.229.004.462-.022.691-.035.462-.026.925-.054 1.387-.077.163-.008.29-.032.341-.087.009-.01-.071-.033-.122-.046-.623-.153-.623-.153-1.249-.118-.387.022-.77.044-1.158.063-.065.004-.14-.008-.205-.017-.188-.025-.169-.056-.011-.11.159-.056.28-.123.415-.185l.571.116.462-.025c.771-.041 1.541-.084 2.312-.123.056-.003.126.027.192.042.187.043.356.08.626.063.692-.045 1.387-.08 2.079-.119.303-.017.303-.017.836.075.061.01.141.023.206.02.696-.037 1.387-.077 2.083-.115a.97.97 0 0 1 .402.055c.043.018.033.048.213.296.552.2.931.178 1.313.158.164-.008.309-.016.416-.046.056-.017.126-.041.126-.061 0-.015-.103-.04-.169-.042-.462-.03-.901.036-1.354.05-.211.007-.393-.045-.431-.132a.65.65 0 0 0-.038-.074c-.014-.024-.024-.05-.038-.074-.182-.007-.289.02-.368.072a.774.774 0 0 1-.285.115c-.126.024-.299.02-.453.028-.149.008-.312.028-.453.018-.14-.012-.252-.055-.383-.082-.061-.014-.136-.033-.197-.03-.537.027-1.069.055-1.602.09-.28.018-.42-.045-.598-.084-.141-.03-.281-.022-.304.048-.059.167.156.236.632.203.393-.029.748-.034 1.057.068.042.014.14.02.201.016.383-.02.761-.043 1.144-.062.07-.003.145.003.21.008.954.08.954.081 1.276.062.154-.01.304-.017.288-.248.293-.247.76-.265 1.213-.303.294-.023.421.043.612.077.066.012.136.036.197.033a477.44 477.44 0 0 0 3.003-.167c.168-.01.29 0 .421.038.168.05.355.081.622.062.532-.038 1.074-.062 1.615-.094.276-.016.276-.016.833.077.06.01.14.022.205.019.542-.027 1.079-.06 1.616-.09.15-.007.285.014.402.054.117.04.258.062.403.054.541-.029 1.078-.06 1.616-.09.065-.003.144.008.205.018.571.093.571.092.832.077.383-.024.776-.036 1.154-.067.369-.031.561.056.814.104.691-.037 1.387-.068 2.073-.112.28-.019.43.03.617.07.066.013.131.042.192.04.234-.007.463-.024.692-.037l.691-.038c.262.043.435.146.809.11.224-.022.462-.027.691-.04l.691-.038c.154-.008.313-.013.462-.027.276-.023.412.05.608.083.066.01.141.029.201.025.463-.022.93-.042 1.383-.078.35-.028.589.017.837.08.051.013.14.02.205.018.542-.028 1.079-.06 1.616-.09.145-.008.285.016.403.055.121.04.257.06.406.052.537-.028 1.079-.06 1.616-.089a.92.92 0 0 1 .206.02c.524.093.524.095.832.076l.229-.013c.383-.022.78-.03 1.154-.068.429-.042.742.008 1.047.094.383-.02.775-.031 1.149-.062.28-.024.43.033.617.07.065.014.136.041.192.038.541-.027 1.083-.051 1.616-.09.289-.023.416.045.612.08.066.011.136.032.197.03.308-.014.616-.033.924-.05.36-.02.36-.02.837.072.225.043.449.008.668-.004.234-.012.453-.022.641.04.117.039.257.062.402.056.308-.014.621-.029.925-.052.242-.02.453-.008.631.048.126.039.257.058.411.049.691-.039 1.387-.078 2.078-.115a.8.8 0 0 1 .201.024c.131.027.258.057.384.087.304-.015.617-.022.916-.044.317-.022.607-.03.855.052a.575.575 0 0 0 .187.042c.234-.006.462-.022.691-.035l.691-.038c.267.037.436.146.81.11.224-.022.462-.027.691-.04.229-.013.462-.027.691-.038.075-.003.159-.011.224-.005.07.005.131.027.192.042.187.043.36.086.626.06.225-.022.463-.027.692-.041.313-.018.313-.018.832.076.21.039.448-.013.649.02.136.022.253.06.384.085.056.01.145.015.21.012.309-.015.622-.03.925-.053.248-.019.453-.001.627.053.126.039.252.055.411.046.771-.045 1.541-.083 2.307-.132.262-.018.472.008.617.062.248.093.598-.019.856.056.159.047.318.101.608.078.532-.041 1.074-.064 1.611-.093.192.04.383.081.58.121.308-.017.616-.035.925-.05.228-.013.462-.028.691-.039.075-.003.154-.01.224-.002s.126.027.192.042c.323.073.323.075.855.043.229-.014.449-.024.641.036.177.056.388.066.631.049.457-.032.92-.056 1.387-.078.145-.008.28.017.402.056.182.062.407.055.636.038.303-.022.602-.044.859.04a.62.62 0 0 0 .188.042c.383-.013.77-.024 1.144-.053.374-.03.556.063.814.108l1.153-.062c.075-.005.164-.019.229-.011.276.03.436.144.814.108.219-.02.457-.027.686-.032a.474.474 0 0 1 .183.043c.023.01 0 .04-.028.055-.084.043-.186.082-.261.126-.009.006.08.033.131.045a1.6 1.6 0 0 0 .44.01.882.882 0 0 1 .397.055c.042.018.029.048-.06.148.001.075.099.041.131-.007.051-.07-.047-.093-.234-.054-.13.027-.195.067-.163.099.019.016.108.037.266-.038.411-.092.719-.109 1.028-.127.079-.004.172-.02.228-.01.202.035.389.078.585.119.224-.01.434-.033.654.025.309.083.323.075.622.058.154-.01.308-.018.463-.026.154-.008.275.015.411.05.276.07.3.07.481-.028a.4.4 0 0 1 .317-.052c.45.09.454.097.837.069.318-.024.617-.03.851.055.159.06.21.046.336-.018.335-.169.49-.166 1.121-.047.295.057.598-.006.897-.014.252-.007.43.029.449.124.015.06.057.102.226.12.065.008.144.019.21.015.388-.019.77-.041 1.158-.063.196-.011.303-.083.265-.177-.042-.1.032-.136.312-.166.168-.017.304-.014.439.013.15.03.108.057-.022.112-.312.134-.274.216.128.307.14.032.253.06.286.107.019.024 0 .056.042.074.23.1.548.165.903.213.341-.042.575.025.837.08.206.041.449.004.668-.012.248-.017.453-.005.631.05.127.04.258.057.412.049.308-.017.621-.029.925-.054.261-.022.457.008.621.059.206.065.435.02.65.028.29.01.435.145.814.107.224-.021.457-.03.691-.036a.581.581 0 0 1 .187.042c.248.082.538.077.855.052.22-.018.435-.033.65.024.356.096.749.18 1.123.268.052.07.015.151.282.192.14.02.271.052.379.086.131.04.252.051.42.04.304-.022.622-.027.921-.055.275-.025.448.024.617.07a.915.915 0 0 0 .425.028.889.889 0 0 1 .425.03c.192.056.206.05.842.065a.482.482 0 0 1 .182.044c.019.01-.023.04-.055.056a.569.569 0 0 1-.168.044c-.692.042-1.387.078-2.079.12a.991.991 0 0 0-.196.03c-.056.017-.125.04-.125.061 0 .016.093.033.159.044.206.034.448-.02.649.02.136.025.248.06.384.085a1.1 1.1 0 0 0 .215.005c.234-.011.462-.027.696-.037.065-.001.14.014.201.026.449.09.449.09.837.069.154-.008.317-.032.462-.023.14.009.262.05.388.075.262.054.51.106.53.224.009.045.164.084.318.087.15.003.308-.014.462-.024.365-.02.365-.02.837.072.131.025.271.028.44.012.065-.006.144 0 .215.007.229.023.229.051.08.106-.21.081-.191.089.398.155.224.025.397.073.585.115.304.068.299.068.099.158-.047.02-.089.04-.135.062-.135.06-.242.123-.523.13-.308.007-.616.032-.924.05-.299.017-.379.054-.35.157.034.124.095.137.632.134.154 0 .29.012.407.052-.056.049-.159.087-.308.097-.383.023-.771.044-1.154.065l-.924.052c-.192.011-.313.09-.261.178.029.05.052.1.076.15.052.1.15.125.463.12.08-.002.154-.014.229-.011.304.01.45.135.814.108.303-.022.621-.027.92-.055.275-.025.43.029.622.07.065.013.136.041.192.04.387-.018.775-.036 1.153-.066.178-.012.285-.004.425.032.337.087.347.083.846.054.365-.022.369-.019.837.072.131.026.271.025.44.013.219-.016.448-.041.677-.019.07.006.159.024.182.044.015.013-.051.047-.107.057-.41.08-.892.068-1.34.101-.14.01-.28-.019-.398-.06a1.09 1.09 0 0 0-.411-.048c-.308.017-.621.029-.925.054a1.747 1.747 0 0 1-.626-.06c-.061-.014-.131-.043-.192-.041-.691.032-1.387.064-2.074.108-.275.02-.434-.029-.621-.07-.066-.013-.132-.041-.192-.04-.234.007-.463.025-.696.037-.85.048-1.696.096-2.546.14-.056.004-.126-.028-.191-.041a23.063 23.063 0 0 0-.389-.078c-.233.013-.462.028-.696.038-.168.007-.317.028-.34.086-.014.038.141.072.304.069.159-.004.318-.022.449-.003.65.095.65.097 1.056.076.355-.02.317-.034.631.048.136.036.257.057.412.048.382-.023.77-.045 1.158-.064.06-.003.14.012.201.024.458.09.458.092.837.068.495-.028.513-.036.846.056.229.063.439.018.658.015.253.058.529.11.759.176.271.078.556.064.864.04.229-.017.453-.024.64.038.178.057.393.063.636.047.22-.014.444-.044.673-.011.061.009.154.031.15.045-.005.021-.065.052-.126.06-.429.064-.901.064-1.354.094-.061.005-.141-.012-.201-.024-.131-.027-.258-.058-.384-.087-.229.01-.463.014-.687.033a1.182 1.182 0 0 1-.43-.024c-.117-.033-.243-.073-.383-.083-.141-.01-.304.013-.458.022-.154.01-.332.006-.453.03-.121.025-.196.078-.275.12-.088.048-.21.063-.387.068-.164.005-.295 0-.416-.043a1.298 1.298 0 0 0-.192-.043c-.066-.01-.141-.027-.201-.024-.696.037-1.387.077-2.083.115-.346.02-.341.02-1.061-.068-.066-.008-.145-.018-.211-.015-.387.02-.77.042-1.158.064-.392.022-.387.02-1.056-.075-.122-.017-.299.007-.444.005-.304-.007-.454-.134-.809-.109-.304.022-.621.028-.925.056-.275.025-.434-.028-.622-.068-.065-.014-.135-.044-.191-.04-.696.035-1.388.074-2.313.081-.229.001-.126.033.024.043.215.016.285-.016.168-.076a.592.592 0 0 0-.304-.053c-.052.007-.117.036.112.086.244.057.23.09.272.107a.965.965 0 0 0 .398.055c.233-.011.462-.027.696-.036a.916.916 0 0 1 .205.019c.515.092.52.098 1.066.06.173-.01.299-.011.434.017.188.04.324.106.608.084.379-.03.766-.048 1.154-.066.061-.003.126.024.196.036.192.036.333.104.618.074.219-.023.457-.03.691-.035a.413.413 0 0 1 .182.042c.057.035-.013.076-.172.105-.065.012-.154.01-.229.014-.308.018-.616.037-.924.051-.164.008-.318.031-.336.087-.014.038.155.071.313.068.234-.005.467-.018.692-.038.396-.035.742-.027 1.065.068.23.066.215.042.46.238.061.05.243.054.402.05.383-.008.561.014.528.061-.041.058-.177.076-.35.084-.308.013-.616.034-.924.051-.075.005-.159.014-.229.012-.07-.003-.136-.021-.197-.035-.131-.028-.243-.072-.383-.082-.141-.01-.304.013-.458.022-.154.008-.318.032-.458.021-.14-.01-.257-.055-.383-.082-.061-.013-.136-.034-.197-.033-.308.013-.616.034-.925.05-.378.02-.378.02-.836-.072a1.588 1.588 0 0 0-.44-.013c-.373.026-.378.021-1.061-.065a1.089 1.089 0 0 0-.21-.015c-.696.037-1.387.077-2.078.115-.594.034-.594.034-.92.186-.242.113-.246.113-.008.164.192.041.365.103.576.125.196.021.439-.048.654.021.108.035.248.072.384.078.215.007.443-.038.649.029.103.033.258.067.389.068.228.003.462-.022.691-.034.07-.003.149-.003.215.004.07.01.131.027.191.042.188.051.389.075.632.049.396-.044.752-.024 1.061.072a.711.711 0 0 0 .21.009c.168-.016.313-.018.439.01.052.013.126.034.117.048-.014.022-.069.053-.13.06-.439.053-.911.06-1.364.09-.061.002-.135-.017-.196-.03-.131-.028-.244-.073-.384-.083-.14-.01-.304.01-.458.018-.154.008-.317.031-.457.022a1.816 1.816 0 0 1-.384-.08 1.119 1.119 0 0 0-.43-.027c-.224.02-.458.024-.687.036-.126-.029-.252-.06-.383-.087a.885.885 0 0 0-.201-.028c-.309.013-.617.032-.925.05-.308.017-.308.017-.832-.076a1.025 1.025 0 0 0-.206-.02c-.388.02-.771.044-1.158.063a1.093 1.093 0 0 1-.407-.053 1.065 1.065 0 0 0-.402-.055c-.617.033-1.233.065-1.85.105-.247.016-.458.002-.626-.052-.197-.061-.416-.045-.645-.033-.518.032-.523.03-.855-.046-.066-.015-.131-.043-.192-.042-.537.024-1.079.047-1.611.085-.281.02-.431-.032-.618-.071-.065-.014-.135-.042-.191-.039-.388.018-.776.034-1.154.065-.378.032-.524-.109-.809-.107-.388.003-.771.039-1.154.061l-.924.053c-.309.017-.617.031-.925.052a1.177 1.177 0 0 1-.421-.04c-.173-.05-.379-.088-.566-.133-.285-.064-.286-.064-.631-.045l-.229.012c-.565.035-.565.032-1.285-.061a.472.472 0 0 0-.15.024c-.097.04-.186.083-.274.124-.127-.024-.281-.037-.365-.072-.239-.098-.612.038-.856-.058a1.377 1.377 0 0 0-.383-.076c-.145-.009-.309.013-.458.022-.388.024-.388.022-.719.158-.167.067-.41.056-.63.071-.229.018-.448.027-.64-.034a1.673 1.673 0 0 0-.631-.05c-.304.024-.617.038-.925.053a1.222 1.222 0 0 1-.21-.014c-.716-.087-.716-.088-1.061-.068-.154.01-.313.013-.463.027a1.68 1.68 0 0 1-.626-.054c-.061-.015-.131-.044-.192-.042-.308.008-.612.023-.915.037-.234.011-.467.018-.692.04-.373.036-.556-.062-.813-.107-.383.02-.771.036-1.154.064a1.215 1.215 0 0 1-.43-.028c-.173-.045-.332-.096-.612-.072-.374.031-.766.043-1.149.062-.257-.046-.445-.141-.814-.106-.224.022-.462.027-.691.04-.308.018-.617.034-.925.053-.331.019-.327.014-.837-.074-.294-.052-.598.008-.897.018-.233.008-.349.078-.293.167.057.09-.069.16-.284.172-.537.03-1.078.062-1.616.09a1.015 1.015 0 0 1-.205-.018c-.576-.094-.576-.093-.832-.078-.383.024-.776.037-1.154.067-.261.02-.453-.011-.622-.062a1.155 1.155 0 0 0-.421-.039c-1.849.107-3.698.206-5.543.315-.276.016-.435-.027-.622-.068-.066-.013-.127-.042-.192-.042-.154 0-.308.015-.462.024-.692.039-1.383.084-2.079.114-.294.012-.373.082-.499.14a.985.985 0 0 1-.382.07c-.168.006-.29-.001-.421-.04a1.594 1.594 0 0 0-.622-.06c-.303.024-.612.036-.925.053-.158.008-.28.036-.331.09-.009.01.089.032.146.046.187.045.365.097.575.128.215.032.449-.005.673-.015.079-.003.154-.013.229-.011.07.001.154.008.205.022.244.067.501.114.837.072.29.019.44.144.809.11.224-.02.458-.03.691-.038.061-.002.127.025.192.038.187.038.337.098.617.071.299-.028.617-.033.92-.055.169-.013.29-.002.421.037.169.05.36.086.622.062.224-.022.462-.027.691-.042.299-.017.299-.016.832.077.061.01.141.022.206.019.388-.02.771-.043 1.158-.062a.942.942 0 0 1 .398.055c.042.018.028.048.042.074-.77.043-1.541.08-2.307.132-.289.02-.421-.041-.612-.076-.066-.012-.136-.037-.197-.034-.542.027-1.079.056-1.616.09a1.03 1.03 0 0 1-.421-.038c-.323-.115-.715-.05-1.079-.033-.28.013-.369.06-.335.16.043.118.211.154.641.131.154-.007.308-.018.462-.025a1.13 1.13 0 0 1 .407.053c.117.041.257.062.402.055.308-.014.621-.028.92-.052.247-.019.453-.004.626.051.192.062.417.048.641.033.523-.031.527-.03.855.045.065.015.131.044.192.042.537-.024 1.079-.045 1.607-.083.275-.02.434.029.617.068.065.013.131.043.192.04.387-.018.775-.035 1.153-.065a1.19 1.19 0 0 1 .43.03c.346.089.356.086.846.056.15-.01.313-.027.453-.015s.253.055.384.082c.061.012.136.029.201.025.308-.013.616-.032.925-.049.289-.017.289-.016.832.077.22.038.448.004.668-.008.238-.015.453-.015.636.043.182.059.402.055.635.043.22-.013.444-.047.668-.007.515.093.515.094.833.075.462-.027.92-.052 1.387-.076.06-.003.14.015.201.027.131.026.243.072.383.082.141.012.304-.007.453-.017.481-.03.514-.04.837.059.272.08.607-.038.86.055.145.053.342.095.613.068.224-.022.457-.029.691-.041.369-.02.369-.02.837.07a.9.9 0 0 0 .201.024c.308-.013.621-.024.92-.053.35-.032.575.025.837.08.205.043.448.006.668-.01.238-.015.453-.011.631.047.187.06.407.052.64.04.22-.012.444-.047.668-.005.482.092.482.092.832.073.308-.017.617-.036.925-.05.061-.002.136.017.196.03.131.027.244.073.384.083.14.01.304-.01.458-.018.154-.008.317-.031.458-.023.14.01.271.047.383.08.131.039.253.043.43.027.224-.02.458-.025.687-.036.126.028.257.056.379.088.126.033.262.03.434.019.575-.038.579-.034 1.061.059.22.041.449.006.669-.005.233-.013.453-.02.635.04.178.058.398.065.631.046.15-.013.308-.02.463-.026a.936.936 0 0 1 .205.016c.248.063.492.12.832.079.299.01.45.135.809.11.304-.023.622-.028.92-.056a1.36 1.36 0 0 1 .613.07c.253.093.607-.036.86.056.145.053.332.095.612.071.309-.025.407.007.496.102.052.054.043.098-.05.14-.093.045-.196.038-.346-.012-.173-.055-.379-.065-.626-.053-.243.013-.393-.065-.594-.095-.201-.031-.439.022-.65-.018-.496-.094-.496-.094-.832-.075-.229.013-.467.02-.691.041-.266.027-.439-.02-.622-.062-.065-.015-.131-.043-.187-.042-.537.025-1.079.047-1.611.087-.281.02-.43-.034-.618-.071-.065-.014-.135-.04-.191-.038-.463.023-.92.051-1.383.078-.088.041-.186.081-.27.125-.088.046-.21.066-.387.065-.295 0-.584.065-.879-.014-.304-.081-.327-.077-.621-.056-.374.026-.771.021-1.121.081-.061.011-.126.04-.126.061-.005.014.094.034.154.046.206.035.444-.018.65.019.136.024.248.06.384.085.056.01.14.009.215.007.079-.002.154-.012.228-.011.071.001.145.01.202.024.257.057.528.109.758.176.224.066.434.02.658.017.898.103.898.105 1.501.07.149-.008.303-.018.458-.016.065 0 .126.027.191.041.188.045.365.086.627.06.224-.02.462-.026.691-.04.308-.018.308-.018.832.076.131.024.271.02.439.008a.907.907 0 0 1 .398.055c.042.018.028.048.042.074-.462.026-.929.044-1.377.081-.29.024-.421-.041-.613-.075-.065-.012-.136-.038-.196-.035a83.57 83.57 0 0 0-1.373.083c-.056.003-.126.038-.131.06-.009.039.108.076.276.074.225-.002.444-.028.645.033.169.054.379.078.627.053.149-.014.308-.014.457-.027.397-.037.757-.03 1.057.071.229.027.453 0 .673-.014.163-.01.322-.021.439.007.248.06.491.12.832.078.369.041.65.13.959.202.145.034.257.054.425.03.07-.009.154-.009.229-.014.154-.008.318-.03.458-.022.14.01.257.054.384.08.06.014.131.037.191.035.234-.008.463-.024.692-.037l.686-.034c.192.04.388.078.58.117.308-.017.617-.035.92-.05.341-.02.341-.018.832.074.22.042.454.014.664-.006.35-.033.584.024.832.084.052.012.145.02.206.013.243-.022.453-.006.631.05.126.039.252.057.407.049.537-.03 1.074-.062 1.611-.09a.88.88 0 0 1 .201.023c.477.09.482.095.832.07.313-.022.603-.032.851.05a.61.61 0 0 0 .187.043c.383-.016.771-.034 1.149-.06a1.26 1.26 0 0 1 .43.025c.173.044.328.096.612.076.79-.058.794-.05 1.729.053.066.007.155-.005.229-.011.159-.016.276.005.416.04.314.077.323.073.622.055.229-.014.467-.018.691-.041.346-.034.575.024.832.08.206.043.444.006.664-.008.238-.016.453-.012.631.045.122.039.253.06.407.052l1.611-.09a1.02 1.02 0 0 1 .206.02c.533.092.533.097 1.061.06a1.43 1.43 0 0 1 .434.017c.122.03.253.059.379.087.229-.011.463-.015.687-.033.173-.014.294-.009.43.023.178.04.328.11.608.075.144-.017.313-.013.457-.028a.994.994 0 0 1 .426.03c.168.047.341.095.612.07.299-.028.617-.033.92-.055.168-.013.285-.001.421.038.169.05.36.08.622.06.532-.04.537-.032 1.056.062.131.024.271.02.439.008a.907.907 0 0 1 .398.055c.098.049.089.079.099.105ZM275.665 1.81c-.154.008-.308.018-.534-.113-.014-.023-.004-.05-.037-.07a.773.773 0 0 0-.332-.073c-.253-.006-.556.047-.551.086.005.033.084.062.239.089.065.01.117.028.177.04.178.035.319.102.576.067-.024-.047-.048-.094 0 0-.023.058.047.098.215.114a.563.563 0 0 0 .154-.008c.145-.033.168-.079.06-.198-.019.02-.005.054.038.063a.67.67 0 0 0 .196-.01c.13-.028.196-.066.163-.098a.38.38 0 0 0-.164-.038c-.098 0-.187.034-.2.15Zm37.895 17.466c-.34.03-.733.02-1.074.08-.06.011-.121.039-.125.06-.005.014.089.033.145.043.126.024.266.017.43.009.247-.012.393.058.584.092.061.01.141.018.206.014.378-.019.752-.04 1.13-.062.066-.005.136-.015.192-.03.186-.043.167-.072-.015-.105-.201-.036-.361-.096-.566-.124-.295-.04-.594.015-.907.023Zm-26.525 1.178-.682.038c-.074.005-.154.007-.224.013a.635.635 0 0 0-.321.093c.107.04.238.062.383.057.229-.01.453-.03.682-.035.248-.007.393.06.585.095.06.01.135.012.205.013.346.005.556-.074.49-.184-.048-.087-.226-.138-.44-.127l-.678.037Zm28.108-3.42c.056-.027.117-.045.145-.068.083-.078.05-.135-.104-.195-.188-.074-.416-.023-.627-.015a.281.281 0 0 0-.135.053c-.018.014-.018.043.01.05.229.06.473.116.711.174Zm-40.559-4.366c-.225.013-.453.022-.678.04a.327.327 0 0 0-.139.053c-.061.036.005.086.196.09.22.006.449-.02.678-.033.289-.016.462-.073.354-.121-.103-.047-.243-.055-.411-.03ZM28.631 10.096c.15-.008.304-.014.453-.025a.634.634 0 0 0 .317-.095 1.113 1.113 0 0 0-.392-.055c-.23.01-.453.023-.678.038-.14.01-.275.043-.307.095-.033.04.28.061.607.042Zm226.171-.845c.061.013.122.04.183.04.149 0 .304-.01.444-.025a.273.273 0 0 0 .135-.055c.018-.014.013-.038-.015-.05-.136-.073-.677-.045-.766.038-.009.015.015.035.019.052ZM240.007.995c.014.024.019.048.038.073.037.045.14.078.29.1.116-.038.177-.08.172-.126a.182.182 0 0 0-.038-.072c-.038-.046-.141-.079-.29-.101-.117.036-.173.079-.172.126Zm85.957 19.617a1.77 1.77 0 0 1-.13.058.586.586 0 0 0 .332.033c.056-.016.089-.038.13-.058a.595.595 0 0 0-.332-.033Zm-2.904.214c.061.014.117.032.182.04a.379.379 0 0 0 .28-.065c-.061-.014-.117-.032-.182-.04a.379.379 0 0 0-.28.065Zm1.839-.282c-.033.036.033.067.206.092.042-.02.098-.038.126-.06.046-.035-.033-.066-.202-.09a2.252 2.252 0 0 0-.13.058Zm-9.874-1.606c-.032.036.033.066.206.091.042-.02.098-.038.126-.059.047-.035-.033-.066-.201-.09-.047.018-.089.038-.131.058ZM301.517 8.255a2.01 2.01 0 0 1-.131.058.586.586 0 0 0 .332.032c.056-.015.089-.038.131-.058a.596.596 0 0 0-.332-.032Zm-12.91-5.652a.408.408 0 0 0 .285-.068c-.061-.013-.117-.031-.183-.04a.38.38 0 0 0-.28.066l.178.042Zm-6.837-.338c-.042.02-.084.04-.131.058a.586.586 0 0 0 .332.032c.056-.015.089-.038.131-.058a.61.61 0 0 0-.332-.032Zm-46.361-1.26c-.042.02-.083.04-.13.059a.585.585 0 0 0 .332.032c.056-.015.088-.038.13-.058a.61.61 0 0 0-.332-.032ZM4.699 13.957a4.233 4.233 0 0 1-.178-.042c-.135.041-.177.08-.102.108.047.018.117.028.178.042.14-.041.172-.078.102-.108Z" fill="#C288F9"/></svg>