<svg width="130" height="129" viewBox="0 0 130 129" fill="none" xmlns="http://www.w3.org/2000/svg">
<mask id="mask0_2607_1389" style="mask-type:alpha" maskUnits="userSpaceOnUse" x="0" y="0" width="130" height="129">
<circle cx="65.3613" cy="64.5" r="63.6103" fill="#C4C4C4" stroke="#F8BB54" stroke-width="1.77931"/>
</mask>
<g mask="url(#mask0_2607_1389)">
<path d="M-34.1191 27.0501C-34.1191 27.0501 -6.09012 21.4863 1.14172 2.01352C8.058 -16.6533 36.5482 -21.6709 36.5482 -21.6709" stroke="#F8BB54" stroke-width="2" stroke-miterlimit="10"/>
<path d="M-34.1191 36.4093C-34.1191 36.4093 0.268085 29.9878 9.12577 6.48526C17.5709 -15.9514 52.492 -21.6709 52.492 -21.6709" stroke="#F8BB54" stroke-width="2" stroke-miterlimit="10"/>
<path d="M-34.1191 45.7948C-34.1191 45.7948 6.60193 38.4893 17.0855 11.009C27.0838 -15.2753 68.4359 -21.6709 68.4359 -21.6709" stroke="#F8BB54" stroke-width="2" stroke-miterlimit="10"/>
<path d="M-34.1191 55.1542C-34.1191 55.1542 12.9601 46.9908 25.0696 15.4808C36.5967 -14.5733 84.3797 -21.6709 84.3797 -21.6709" stroke="#F8BB54" stroke-width="2" stroke-miterlimit="10"/>
<path d="M-34.1191 64.5136C-34.1191 64.5136 19.3182 55.4923 33.0537 19.9784C46.1096 -13.8714 100.299 -21.6709 100.299 -21.6709" stroke="#F8BB54" stroke-width="2" stroke-miterlimit="10"/>
<path d="M-34.1191 73.899C-34.1191 73.899 25.652 64.0196 41.0134 24.476C55.6467 -13.1955 116.243 -21.6709 116.243 -21.6709" stroke="#F8BB54" stroke-width="2" stroke-miterlimit="10"/>
<path d="M-34.1191 83.2584C-34.1191 83.2584 32.0101 72.495 48.9975 28.9739C65.1598 -12.4935 132.187 -21.6709 132.187 -21.6709" stroke="#F8BB54" stroke-width="2" stroke-miterlimit="10"/>
<path d="M-34.1191 92.6178C-34.1191 92.6178 38.3683 80.9965 56.9572 33.4456C74.6726 -11.7916 148.131 -21.6709 148.131 -21.6709" stroke="#F8BB54" stroke-width="2" stroke-miterlimit="10"/>
<path d="M-34.1191 102.003C-34.1191 102.003 44.702 89.5241 64.9413 37.9692C84.1856 -11.1157 164.05 -21.6709 164.05 -21.6709" stroke="#F8BB54" stroke-width="2" stroke-miterlimit="10"/>
<path d="M-34.1191 111.362C-34.1191 111.362 51.0603 98.0256 72.9012 42.467C93.6984 -10.4137 179.994 -21.6709 179.994 -21.6709" stroke="#F8BB54" stroke-width="2" stroke-miterlimit="10"/>
<path d="M-34.1191 120.747C-34.1191 120.747 57.4183 106.527 80.8852 46.9647C103.211 -9.71177 195.938 -21.6709 195.938 -21.6709" stroke="#F8BB54" stroke-width="2" stroke-miterlimit="10"/>
<path d="M-34.1191 130.108C-34.1191 130.108 63.7522 115.029 88.8449 51.4625C112.724 -9.0357 211.881 -21.6709 211.881 -21.6709" stroke="#F8BB54" stroke-width="2" stroke-miterlimit="10"/>
<path d="M-34.1191 139.466C-34.1191 139.466 70.1103 123.53 96.829 55.9341C122.237 -8.33373 227.825 -21.6709 227.825 -21.6709" stroke="#F8BB54" stroke-width="2" stroke-miterlimit="10"/>
<path d="M-34.1191 148.851C-34.1191 148.851 76.4685 132.032 104.813 60.4578C131.75 -7.63176 243.745 -21.6709 243.745 -21.6709" stroke="#F8BB54" stroke-width="2" stroke-miterlimit="10"/>
<path d="M-34.1191 158.212C-34.1191 158.212 82.8023 140.533 112.773 64.9296C141.263 -6.95589 259.689 -21.6709 259.689 -21.6709" stroke="#F8BB54" stroke-width="2" stroke-miterlimit="10"/>
<path d="M-34.1191 167.572C-34.1191 167.572 89.1605 149.034 120.757 69.4272C150.776 -6.25392 275.633 -21.6709 275.633 -21.6709" stroke="#F8BB54" stroke-width="2" stroke-miterlimit="10"/>
<path d="M-34.1191 176.957C-34.1191 176.957 95.5186 157.561 128.717 73.9251C160.289 -5.55195 291.577 -21.6709 291.577 -21.6709" stroke="#F8BB54" stroke-width="2" stroke-miterlimit="10"/>
<path d="M-34.1191 186.316C-34.1191 186.316 101.852 166.037 136.701 78.4227C169.802 -4.87609 307.497 -21.6709 307.497 -21.6709" stroke="#F8BB54" stroke-width="2" stroke-miterlimit="10"/>
</g>
</svg>
