<svg width="140" height="91" viewBox="0 0 140 91" fill="none" xmlns="http://www.w3.org/2000/svg">
<g clip-path="url(#clip0_2065_66)">
<path d="M137.302 90.9099C138.662 90.9099 139.765 89.7279 139.765 88.2699C139.765 86.8119 138.662 85.6299 137.302 85.6299C135.941 85.6299 134.838 86.8119 134.838 88.2699C134.838 89.7279 135.941 90.9099 137.302 90.9099Z" fill="#3B82F6"/>
<path d="M114.961 90.9099C116.321 90.9099 117.424 89.7279 117.424 88.2699C117.424 86.8119 116.321 85.6299 114.961 85.6299C113.6 85.6299 112.497 86.8119 112.497 88.2699C112.497 89.7279 113.6 90.9099 114.961 90.9099Z" fill="#3B82F6"/>
<path d="M92.6288 90.9104C93.1183 90.9123 93.5974 90.7586 94.0053 90.4686C94.4132 90.1787 94.7316 89.7654 94.9202 89.2814C95.1089 88.7973 95.1592 88.2642 95.0648 87.7495C94.9704 87.2348 94.7357 86.7617 94.3902 86.3901C94.0447 86.0185 93.6041 85.7651 93.1241 85.662C92.6441 85.5589 92.1464 85.6108 91.694 85.8111C91.2416 86.0114 90.8548 86.3511 90.5826 86.7871C90.3105 87.2231 90.1651 87.7358 90.1651 88.2603C90.1651 88.9614 90.4244 89.6339 90.8862 90.1306C91.348 90.6273 91.9745 90.9077 92.6288 90.9104V90.9104Z" fill="#3B82F6"/>
<path d="M70.2971 90.9104C70.7862 90.9104 71.2643 90.7549 71.671 90.4638C72.0777 90.1726 72.3946 89.7587 72.5818 89.2745C72.769 88.7903 72.8179 88.2574 72.7225 87.7434C72.6271 87.2293 72.3916 86.7572 72.0457 86.3865C71.6999 86.0159 71.2592 85.7635 70.7795 85.6613C70.2998 85.559 69.8025 85.6115 69.3506 85.8121C68.8988 86.0127 68.5126 86.3523 68.2409 86.7881C67.9691 87.2239 67.824 87.7362 67.824 88.2603C67.824 88.6083 67.8879 88.953 68.0122 89.2745C68.1365 89.596 68.3187 89.8881 68.5483 90.1342C68.778 90.3802 69.0506 90.5755 69.3506 90.7087C69.6507 90.8419 69.9723 90.9104 70.2971 90.9104V90.9104Z" fill="#3B82F6"/>
<path d="M47.9559 90.9099C49.3166 90.9099 50.4196 89.7279 50.4196 88.2699C50.4196 86.8119 49.3166 85.6299 47.9559 85.6299C46.5953 85.6299 45.4922 86.8119 45.4922 88.2699C45.4922 89.7279 46.5953 90.9099 47.9559 90.9099Z" fill="#3B82F6"/>
<path d="M26.567 90.5952C27.8254 90.0408 28.4261 88.4982 27.9087 87.1497C27.3913 85.8012 25.9517 85.1575 24.6933 85.7119C23.4349 86.2664 22.8341 87.809 23.3515 89.1575C23.8689 90.506 25.3085 91.1497 26.567 90.5952Z" fill="#3B82F6"/>
<path d="M3.29234 85.6602C2.80244 85.6582 2.32308 85.8122 1.91496 86.1026C1.50685 86.393 1.18842 86.8068 1.00009 87.2915C0.81176 87.7761 0.762001 88.3097 0.857125 88.8247C0.952249 89.3397 1.18795 89.8128 1.53437 90.184C1.88078 90.5552 2.32225 90.8078 2.80284 90.9097C3.28342 91.0116 3.78149 90.9583 4.23376 90.7565C4.68602 90.5547 5.07217 90.2135 5.3432 89.7762C5.61423 89.3389 5.75788 88.8252 5.75604 88.3002C5.75358 87.6008 5.49325 86.9308 5.03175 86.4363C4.57025 85.9418 3.94499 85.6628 3.29234 85.6602V85.6602Z" fill="#3B82F6"/>
<path d="M137.302 69.4997C138.662 69.4997 139.765 68.3178 139.765 66.8597C139.765 65.4017 138.662 64.2197 137.302 64.2197C135.941 64.2197 134.838 65.4017 134.838 66.8597C134.838 68.3178 135.941 69.4997 137.302 69.4997Z" fill="#3B82F6"/>
<path d="M114.961 69.4997C116.321 69.4997 117.424 68.3178 117.424 66.8597C117.424 65.4017 116.321 64.2197 114.961 64.2197C113.6 64.2197 112.497 65.4017 112.497 66.8597C112.497 68.3178 113.6 69.4997 114.961 69.4997Z" fill="#3B82F6"/>
<path d="M92.6288 69.5002C93.1187 69.5022 93.5982 69.3482 94.0063 69.0578C94.4144 68.7673 94.7328 68.3535 94.9212 67.8689C95.1095 67.3843 95.1593 66.8506 95.0641 66.3357C94.969 65.8207 94.7333 65.3475 94.3869 64.9763C94.0405 64.6051 93.5989 64.3526 93.1183 64.2506C92.6377 64.1487 92.1398 64.202 91.6875 64.4038C91.2352 64.6056 90.8491 64.9469 90.5781 65.3842C90.307 65.8215 90.1633 66.3352 90.1651 66.8602C90.1676 67.5595 90.428 68.2295 90.8895 68.724C91.351 69.2185 91.9762 69.4976 92.6288 69.5002V69.5002Z" fill="#3B82F6"/>
<path d="M70.2971 69.5002C70.7866 69.5002 71.2651 69.3445 71.672 69.0529C72.0788 68.7612 72.3958 68.3468 72.5827 67.862C72.7696 67.3772 72.818 66.8438 72.7218 66.3295C72.6256 65.8152 72.3892 65.343 72.0424 64.9728C71.6956 64.6026 71.2541 64.351 70.7737 64.2499C70.2934 64.1488 69.7959 64.2027 69.3442 64.4048C68.8925 64.6069 68.5069 64.9481 68.2363 65.3852C67.9657 65.8223 67.8222 66.3356 67.8241 66.8602C67.8241 67.2077 67.8881 67.5518 68.0125 67.8728C68.1369 68.1937 68.3191 68.4852 68.5489 68.7305C68.7787 68.9758 69.0514 69.17 69.3513 69.3021C69.6513 69.4342 69.9728 69.5015 70.2971 69.5002V69.5002Z" fill="#3B82F6"/>
<path d="M47.9559 69.4997C49.3166 69.4997 50.4196 68.3178 50.4196 66.8597C50.4196 65.4017 49.3166 64.2197 47.9559 64.2197C46.5953 64.2197 45.4922 65.4017 45.4922 66.8597C45.4922 68.3178 46.5953 69.4997 47.9559 69.4997Z" fill="#3B82F6"/>
<path d="M26.5692 69.193C27.8276 68.6385 28.4284 67.0959 27.911 65.7474C27.3936 64.3989 25.9539 63.7551 24.6955 64.3096C23.437 64.864 22.8363 66.4067 23.3537 67.7552C23.8711 69.1037 25.3108 69.7474 26.5692 69.193Z" fill="#3B82F6"/>
<path d="M3.29233 69.5002C3.78184 69.5002 4.26032 69.3445 4.6672 69.0529C5.07409 68.7612 5.39107 68.3468 5.57797 67.862C5.76487 67.3772 5.81336 66.8438 5.71718 66.3295C5.621 65.8152 5.38445 65.343 5.03766 64.9728C4.69087 64.6026 4.24941 64.351 3.76907 64.2499C3.28874 64.1488 2.79124 64.2027 2.33952 64.4048C1.8878 64.6069 1.50217 64.9481 1.23156 65.3852C0.960947 65.8223 0.817445 66.3356 0.819293 66.8602C0.81929 67.2077 0.883317 67.5518 1.00771 67.8728C1.13211 68.1937 1.3145 68.4852 1.54426 68.7305C1.77403 68.9758 2.04671 69.17 2.3467 69.3021C2.64669 69.4342 2.96801 69.5015 3.29233 69.5002Z" fill="#3B82F6"/>
<path d="M137.302 48.0896C138.662 48.0896 139.765 46.9076 139.765 45.4496C139.765 43.9915 138.662 42.8096 137.302 42.8096C135.941 42.8096 134.838 43.9915 134.838 45.4496C134.838 46.9076 135.941 48.0896 137.302 48.0896Z" fill="#3B82F6"/>
<path d="M114.961 48.0896C116.321 48.0896 117.424 46.9076 117.424 45.4496C117.424 43.9915 116.321 42.8096 114.961 42.8096C113.6 42.8096 112.497 43.9915 112.497 45.4496C112.497 46.9076 113.6 48.0896 114.961 48.0896Z" fill="#3B82F6"/>
<path d="M92.6288 48.0998C93.1183 48.1018 93.5974 47.9481 94.0053 47.6581C94.4132 47.3681 94.7316 46.9549 94.9202 46.4708C95.1089 45.9868 95.1592 45.4537 95.0648 44.939C94.9704 44.4243 94.7357 43.9512 94.3902 43.5795C94.0447 43.2079 93.6041 42.9545 93.1241 42.8515C92.6441 42.7484 92.1464 42.8003 91.694 43.0006C91.2416 43.2008 90.8548 43.5405 90.5826 43.9765C90.3105 44.4125 90.1651 44.9252 90.1651 45.4498C90.1651 46.1509 90.4244 46.8234 90.8862 47.3201C91.348 47.8168 91.9745 48.0972 92.6288 48.0998V48.0998Z" fill="#3B82F6"/>
<path d="M70.2971 48.0998C70.7862 48.0998 71.2643 47.9444 71.671 47.6532C72.0777 47.362 72.3946 46.9482 72.5818 46.4639C72.769 45.9797 72.8179 45.4469 72.7225 44.9328C72.6271 44.4188 72.3916 43.9465 72.0457 43.5759C71.6999 43.2053 71.2592 42.953 70.7795 42.8507C70.2998 42.7485 69.8025 42.801 69.3506 43.0015C68.8988 43.2021 68.5126 43.5418 68.2409 43.9776C67.9691 44.4133 67.824 44.9257 67.824 45.4498C67.824 45.7978 67.8879 46.1424 68.0122 46.4639C68.1365 46.7855 68.3187 47.0775 68.5483 47.3236C68.778 47.5697 69.0506 47.7649 69.3506 47.8981C69.6507 48.0313 69.9723 48.0998 70.2971 48.0998V48.0998Z" fill="#3B82F6"/>
<path d="M47.9559 48.0896C49.3166 48.0896 50.4196 46.9076 50.4196 45.4496C50.4196 43.9915 49.3166 42.8096 47.9559 42.8096C46.5953 42.8096 45.4922 43.9915 45.4922 45.4496C45.4922 46.9076 46.5953 48.0896 47.9559 48.0896Z" fill="#3B82F6"/>
<path d="M26.5678 47.7915C27.8263 47.2371 28.427 45.6944 27.9096 44.3459C27.3922 42.9974 25.9526 42.3538 24.6941 42.9082C23.4357 43.4626 22.835 45.0052 23.3524 46.3537C23.8698 47.7022 25.3094 48.346 26.5678 47.7915Z" fill="#3B82F6"/>
<path d="M3.29231 48.0998C3.78143 48.0998 4.25959 47.9444 4.66627 47.6532C5.07296 47.362 5.38987 46.9482 5.57704 46.4639C5.76422 45.9797 5.81327 45.4469 5.71785 44.9328C5.62242 44.4188 5.38692 43.9465 5.04106 43.5759C4.6952 43.2053 4.25447 42.953 3.77475 42.8507C3.29504 42.7485 2.79788 42.801 2.346 43.0015C1.89411 43.2021 1.50784 43.5418 1.2361 43.9776C0.964361 44.4133 0.819275 44.9257 0.819275 45.4498C0.819275 46.1526 1.0799 46.8266 1.54368 47.3236C2.00746 47.8206 2.63643 48.0998 3.29231 48.0998V48.0998Z" fill="#3B82F6"/>
<path d="M137.302 26.6902C138.662 26.6902 139.765 25.5082 139.765 24.0502C139.765 22.5921 138.662 21.4102 137.302 21.4102C135.941 21.4102 134.838 22.5921 134.838 24.0502C134.838 25.5082 135.941 26.6902 137.302 26.6902Z" fill="#3B82F6"/>
<path d="M114.961 26.6902C116.321 26.6902 117.424 25.5082 117.424 24.0502C117.424 22.5921 116.321 21.4102 114.961 21.4102C113.6 21.4102 112.497 22.5921 112.497 24.0502C112.497 25.5082 113.6 26.6902 114.961 26.6902Z" fill="#3B82F6"/>
<path d="M92.6288 26.6604C93.1187 26.6623 93.5982 26.5083 94.0063 26.2179C94.4144 25.9275 94.7328 25.5137 94.9212 25.0291C95.1095 24.5444 95.1593 24.0108 95.0641 23.4958C94.969 22.9808 94.7333 22.5078 94.3869 22.1366C94.0405 21.7653 93.5989 21.5127 93.1183 21.4108C92.6377 21.3089 92.1398 21.3622 91.6875 21.564C91.2352 21.7658 90.8491 22.107 90.5781 22.5443C90.307 22.9817 90.1633 23.4954 90.1651 24.0203C90.1676 24.7197 90.428 25.3897 90.8895 25.8842C91.351 26.3788 91.9762 26.6577 92.6288 26.6604V26.6604Z" fill="#3B82F6"/>
<path d="M70.2971 26.6604C70.7866 26.6604 71.2651 26.5047 71.672 26.213C72.0788 25.9214 72.3958 25.507 72.5827 25.0222C72.7696 24.5374 72.818 24.004 72.7218 23.4897C72.6256 22.9754 72.3892 22.5032 72.0424 22.133C71.6956 21.7628 71.2541 21.5112 70.7737 21.4101C70.2934 21.3089 69.7959 21.3629 69.3442 21.565C68.8925 21.7671 68.5069 22.1083 68.2363 22.5454C67.9657 22.9825 67.8222 23.4958 67.8241 24.0203C67.8241 24.3679 67.8881 24.712 68.0125 25.033C68.1369 25.3539 68.3191 25.6454 68.5489 25.8906C68.7787 26.1359 69.0514 26.3302 69.3513 26.4623C69.6513 26.5944 69.9728 26.6617 70.2971 26.6604V26.6604Z" fill="#3B82F6"/>
<path d="M47.9559 26.6902C49.3166 26.6902 50.4196 25.5082 50.4196 24.0502C50.4196 22.5921 49.3166 21.4102 47.9559 21.4102C46.5953 21.4102 45.4922 22.5921 45.4922 24.0502C45.4922 25.5082 46.5953 26.6902 47.9559 26.6902Z" fill="#3B82F6"/>
<path d="M26.57 26.3892C27.8285 25.8348 28.4292 24.2922 27.9118 22.9437C27.3944 21.5952 25.9548 20.9514 24.6963 21.5059C23.4379 22.0603 22.8372 23.603 23.3546 24.9515C23.872 26.3 25.3116 26.9437 26.57 26.3892Z" fill="#3B82F6"/>
<path d="M3.29233 26.6604C3.78184 26.6604 4.26032 26.5047 4.6672 26.213C5.07409 25.9214 5.39107 25.507 5.57797 25.0222C5.76487 24.5374 5.81336 24.004 5.71718 23.4897C5.621 22.9754 5.38445 22.5032 5.03766 22.133C4.69087 21.7628 4.24941 21.5112 3.76907 21.4101C3.28874 21.3089 2.79124 21.3629 2.33952 21.565C1.8878 21.7671 1.50217 22.1083 1.23156 22.5454C0.960947 22.9825 0.817445 23.4958 0.819293 24.0203C0.81929 24.3679 0.883317 24.712 1.00771 25.033C1.13211 25.3539 1.3145 25.6454 1.54426 25.8906C1.77403 26.1359 2.04671 26.3302 2.3467 26.4623C2.64669 26.5944 2.96801 26.6617 3.29233 26.6604V26.6604Z" fill="#3B82F6"/>
<path d="M137.302 5.28C138.662 5.28 139.765 4.09803 139.765 2.64C139.765 1.18197 138.662 0 137.302 0C135.941 0 134.838 1.18197 134.838 2.64C134.838 4.09803 135.941 5.28 137.302 5.28Z" fill="#3B82F6"/>
<path d="M114.961 5.28C116.321 5.28 117.424 4.09803 117.424 2.64C117.424 1.18197 116.321 0 114.961 0C113.6 0 112.497 1.18197 112.497 2.64C112.497 4.09803 113.6 5.28 114.961 5.28Z" fill="#3B82F6"/>
<path d="M92.6288 5.29024C93.1183 5.29222 93.5974 5.13851 94.0053 4.84853C94.4132 4.55855 94.7316 4.14532 94.9202 3.66127C95.1089 3.17723 95.1592 2.64412 95.0648 2.12941C94.9704 1.61471 94.7357 1.14159 94.3902 0.769978C94.0447 0.398368 93.6041 0.144953 93.1241 0.0418894C92.6441 -0.0611745 92.1464 -0.00927669 91.694 0.190998C91.2416 0.391273 90.8548 0.730946 90.5826 1.16695C90.3105 1.60295 90.1651 2.11567 90.1651 2.64022C90.1651 3.34131 90.4244 4.01383 90.8862 4.51052C91.348 5.0072 91.9745 5.2876 92.6288 5.29024V5.29024Z" fill="#3B82F6"/>
<path d="M70.2971 5.29023C70.7862 5.29023 71.2643 5.13483 71.671 4.84364C72.0777 4.55245 72.3946 4.13859 72.5818 3.65437C72.769 3.17015 72.8179 2.63729 72.7225 2.12324C72.6271 1.60919 72.3916 1.13698 72.0457 0.76637C71.6999 0.395761 71.2592 0.143401 70.7795 0.04115C70.2998 -0.0611008 69.8025 -0.00860433 69.3506 0.191968C68.8988 0.39254 68.5126 0.732191 68.2409 1.16798C67.9691 1.60377 67.824 2.11609 67.824 2.64021C67.824 2.98821 67.8879 3.33286 68.0122 3.65437C68.1365 3.97588 68.3187 4.26798 68.5483 4.51405C68.778 4.76013 69.0506 4.95534 69.3506 5.08851C69.6507 5.22169 69.9723 5.29023 70.2971 5.29023V5.29023Z" fill="#3B82F6"/>
<path d="M47.9559 5.28C49.3166 5.28 50.4196 4.09803 50.4196 2.64C50.4196 1.18197 49.3166 0 47.9559 0C46.5953 0 45.4922 1.18197 45.4922 2.64C45.4922 4.09803 46.5953 5.28 47.9559 5.28Z" fill="#3B82F6"/>
<path d="M26.5687 4.97708C27.8271 4.42265 28.4279 2.87999 27.9105 1.53149C27.393 0.182988 25.9534 -0.460681 24.695 0.0937553C23.4366 0.648191 22.8358 2.19079 23.3532 3.53929C23.8706 4.88779 25.3102 5.53152 26.5687 4.97708Z" fill="#3B82F6"/>
<path d="M3.29231 5.29023C3.78143 5.29023 4.25959 5.13483 4.66627 4.84364C5.07296 4.55245 5.38987 4.13859 5.57704 3.65437C5.76422 3.17015 5.81327 2.63729 5.71785 2.12324C5.62242 1.60919 5.38692 1.13698 5.04106 0.76637C4.6952 0.395761 4.25447 0.143401 3.77475 0.04115C3.29504 -0.0611008 2.79788 -0.00860433 2.346 0.191968C1.89411 0.39254 1.50784 0.732191 1.2361 1.16798C0.964361 1.60377 0.819275 2.11609 0.819275 2.64021C0.819275 3.34303 1.0799 4.01708 1.54368 4.51405C2.00746 5.01102 2.63643 5.29023 3.29231 5.29023V5.29023Z" fill="#3B82F6"/>
</g>
<defs>
<clipPath id="clip0_2065_66">
<rect width="138.946" height="90.91" fill="white" transform="translate(0.819336)"/>
</clipPath>
</defs>
</svg>
